<svg xmlns:xlink="http://www.w3.org/1999/xlink" viewBox="0 0 21000 29700" style="shape-rendering:geometricPrecision; text-rendering:geometricPrecision; image-rendering:optimizeQuality; fill-rule:evenodd; clip-rule:evenodd" version="1.1" height="297mm" width="210mm" xml:space="preserve" xmlns="http://www.w3.org/2000/svg">
 <defs>
  <style type="text/css">
   
    .str2 {stroke:#1E0500;stroke-width:105.83;stroke-miterlimit:22.9256}
    .str3 {stroke:#332C2B;stroke-width:70.56;stroke-miterlimit:22.9256}
    .str0 {stroke:#2159BA;stroke-width:20;stroke-miterlimit:22.9256}
    .str1 {stroke:#FCDE5A;stroke-width:20;stroke-miterlimit:22.9256}
    .fil0 {fill:none}
    .fil3 {fill:#1E0500}
    .fil1 {fill:#2159BA}
    .fil2 {fill:#FCDE5A}
   
  </style>
 </defs>
 <g id="图层_x0020_1">
  <metadata id="CorelCorpID_0Corel-Layer"></metadata>
  <rect height="29700" width="21000" y="0.53" x="-7.13" class="fil0"></rect>
  <rect height="29700" width="21000" y="0.53" x="-7.13" class="fil0"></rect>
  <path d="M18924.92 17186.35c0,0 854.99,-1182.87 564.09,-1458.85 -1047.57,-993.83 -13159.15,-5909.11 -15230.24,-6652.28 0,0 -3014.9,5485.25 -2723.15,6710.65 1089.25,991.99 5479.56,1953.65 7949.84,3801.51 2820.41,1867.35 2631.51,1917.12 2631.51,1917.12l-97.26 1692.26 1692.26 -855.83c596.51,356.58 1192.98,713.21 1789.49,1069.8l1225.44 -1672.78 2198.02 -4551.6z" class="fil1 str0"></path>
  <path d="M4930 9792.66c0,0 13226.75,5835.37 13849.21,6146.56 622.46,311.2 778.02,894.77 700.24,1711.71 -77.78,816.95 -2762.03,5018.39 -2762.03,5018.39l-2081.24 -797.5 -1750.6 1711.71 -97.26 -2470.32c0,0 -8169.47,-4882.2 -9550.51,-5096.17 -1439.37,-408.45 -1419.92,-350.08 -1400.48,-525.16 19.45,-175.08 875.28,-1964.53 1069.81,-2217.43 194.52,-252.89 1507.44,-2888.52 2022.86,-3481.79z" class="fil2 str1"></path>
  <path d="M6305.97 12022.25c0,0 -486.27,-836.35 -1069.81,-165.3 -583.53,671.06 136.15,1322.59 136.15,1663.05 0,340.45 -282,826.68 -1312.92,-204.23" class="fil0 str2"></path>
  <line y2="14405.13" x2="5885.42" y1="11993.18" x1="7159.45" class="fil0 str2"></line>
  <path d="M6809.33 15154c0,0 1002.5,-2290.28 -393.49,-1752.99" class="fil0 str2"></path>
  <path d="M8854.26 13832.44c-159.12,-121.4 -532.21,-331.75 -891.98,10.4 -474.16,451.04 -231.24,948.41 -69.37,1075.62 636.65,500.3 1396.13,-754.19 961.35,-1086.02z" class="fil0 str2"></path>
  <line y2="17179.15" x2="8440.5" y1="14115.55" x1="9918.8" class="fil0 str2"></line>
  <path d="M9913.73 14317.35c2118.51,699.14 223.78,2522.81 -768.1,1607.17" class="fil0 str2"></path>
  <line y2="18051.38" x2="10444.7" y1="14987.78" x1="11923" class="fil0 str2"></line>
  <path d="M11917.92 15189.58c2118.51,699.14 223.79,2522.81 -768.09,1607.17" class="fil0 str2"></path>
  <line y2="18414.25" x2="12754.17" y1="16478.87" x1="13687.82" class="fil0 str2"></line>
  <path d="M13746.16 15929.37c-20.92,233.97 184.96,283.85 243.15,82.67 9.7,-65.65 -131.3,-248 -243.15,-82.67z" class="fil3 str2"></path>
  <line y2="18832.77" x2="13551.84" y1="16823.51" x1="14735.02" class="fil0 str2"></line>
  <path d="M14537.69 19229.84c0,0 734.46,-1196.9 778.42,-1466.4 43.97,-269.5 -178.52,-800.24 -923.51,-363.61" class="fil0 str2"></path>
  <path d="M17292.46 18209.99c0,0 -846.1,-758.58 -1254.59,-116.71 -408.49,641.87 -345.27,1191.36 637.02,1269.18" class="fil0 str2"></path>
  <path d="M17496.72 17859.87c-209.94,433.36 -2009.1,4541.06 -2804.74,2419.32" class="fil0 str2"></path>
  <line y2="22041.49" x2="16375.49" y1="21574.63" x1="15081.98" class="fil0 str3"></line>
  <path d="M6076.08 10662.43c-155.59,0 -758.61,-194.53 -758.61,-194.53 -35.29,0 -177.91,374.61 -313.66,496.02" class="fil0 str3"></path>
 </g>
</svg>
