<?xml version="1.0" standalone="no"?><!DOCTYPE svg PUBLIC "-//W3C//DTD SVG 1.1//EN" "http://www.w3.org/Graphics/SVG/1.1/DTD/svg11.dtd"><svg t="1647600135537" class="icon" viewBox="0 0 1024 1024" version="1.1" xmlns="http://www.w3.org/2000/svg" p-id="11788" xmlns:xlink="http://www.w3.org/1999/xlink" width="64" height="64"><defs><style type="text/css"></style></defs><path d="M210.66752 996.89728h633.18016s-346.81088-253.6448-196.29568-385.71776c0-0.0128 0.0128-0.0128 0.02304-0.0128 83.34336-55.13472 139.0592-155.1488 139.0592-269.38112 0-173.79584-128.9344-314.68032-287.98976-314.68032-32.23808 0-63.20384 5.87776-92.14208 16.55552-43.56352 7.90016-142.94528 43.22304-232.06912 199.90528a511.27552 511.27552 0 0 1-9.96352 16.72704c-19.38176-7.39072-50.47552-20.70528-57.25952-32.0768 3.49696 10.70592 14.78912 35.56864 45.98784 49.4208-39.73632 57.84064-71.22176 69.71392-91.31264 68.81792-4.8768-0.93952-9.04704-1.73824-12.55936-2.39616-0.18432-0.06656-0.3456-0.1408-0.53248-0.21248l0.2688 0.16128c-7.67744-1.45408-11.94752-2.22464-11.94752-2.22464l17.1648 37.18912s48.63232 34.3296 40.0512 77.24032c-8.58368 42.91072-51.4944 168.78848-14.30272 200.256 37.18912 31.47008 288.93184 37.18912 277.4912 128.73216-11.4432 91.5456-146.85184 211.69664-146.85184 211.69664z" fill="#D2746D" p-id="11789"></path><path d="M48.79616 343.8464l-11.67872-6.83264c0.00256 0 4.07552 4.02432 11.67872 6.83264zM107.2128 228.21632c-1.03936-3.16928-1.43616-5.15072-1.43616-5.15072-0.27392 1.64352 0.37888 3.38176 1.43616 5.15072zM773.76 160.13056s58.64448 92.97408 57.216 150.18752c-1.43104 57.216 0 251.7504 0 251.7504s0 48.63232 42.91072 121.57952c42.91328 72.9472 113.00096 120.15104 113.00096 120.15104V301.7344s-34.3296-70.08768-88.68352-104.41728c-54.35648-34.32704-124.44416-37.18656-124.44416-37.18656z" fill="#D2746D" p-id="11790"></path></svg>