<?xml version="1.0" standalone="no"?><!DOCTYPE svg PUBLIC "-//W3C//DTD SVG 1.1//EN" "http://www.w3.org/Graphics/SVG/1.1/DTD/svg11.dtd"><svg t="1647599794332" class="icon" viewBox="0 0 1024 1024" version="1.1" xmlns="http://www.w3.org/2000/svg" p-id="5030" xmlns:xlink="http://www.w3.org/1999/xlink" width="64" height="64"><defs><style type="text/css"></style></defs><path d="M925.887145 438.151325c-1.038496-10.416138-5.595206-20.621219-12.630836-28.409338-0.837232-0.953753-1.69645-1.896914-2.596639-2.798103 1.388059-13.711504 0.75229-26.746266-0.19107-38.784304-2.744539-29.299935-8.381717-53.110791-12.238502-69.70534-4.058249-16.584156-6.993858-25.877655-6.993858-25.877655s2.235884 9.485369 5.425322 26.216425c3.221016 16.690084 7.247686 40.755768 9.197164 69.706339 0.550827 10.744515 0.868611 22.285291-0.33897 34.056909-1.378465-1.143625-2.765525-2.266263-4.133597-3.019553-2.204305-1.324102-3.793628-2.532683-6.484803-3.942727l-7.27067-3.189438c-2.564261-0.773276-5.287815-1.198188-7.925427-1.759407-2.734146-0.168885-5.574221-0.021985-8.329353 0.233042-5.405135 1.313709-10.862036 3.623743-14.539342 7.841483-7.873062 7.862469-10.585023 19.42423-8.095311 29.840368 0.307392 2.67019 1.906507 5.023394 2.945003 7.49292 1.547551 2.172727 3.20103 4.43899 5.202872 6.177612 2.25687 1.440623 4.080234 3.496829 6.793394 4.260511 2.479119 0.889797 5.298208 2.25687 7.417571 2.288249 9.113021 2.18332 21.204623-0.062957 27.679034-7.90544 6.072483-6.972673 8.710294-15.216083 10.342588-23.089945 4.811338 6.177612 7.989383 13.468069 8.859193 21.267581 1.059682 8.880179-0.498462 18.057157-3.453858 26.704294-2.936609 8.668123-7.280064 16.890548-12.409386 24.478004-5.012002 7.651412-10.777093 14.71962-16.912533 21.256988-24.637496 26.153468-53.577474 44.760452-79.836071 56.819676-13.193255 5.965555-25.591249 10.851443-36.897983 14.284315-5.584614 1.84435-10.988949 3.072917-15.905416 4.493553-5.002408 1.080667-9.600891 2.077392-13.744082 2.966988-8.382717 1.410044-14.973648 2.574654-19.520565 2.967988-4.524932 0.529841-6.950687 0.82664-6.950687 0.82664s2.426755-0.148899 6.984265-0.381941c4.576497-0.137507 11.25337-0.762683 19.741215-1.823364 4.21774-0.709319 8.890572-1.483594 13.976924-2.341812 5.001409-1.176203 10.511673-2.172727 16.276764-3.762249 11.582747-2.904031 24.383468-7.238093 37.926286-13.012777 26.926744-11.624718 57.35991-29.226385 83.153422-56.163721 6.421846-6.697859 12.514515-14.008502 17.866287-22.019871 5.468292-7.925427 10.193689-16.626127 13.499647-26.067526C925.093882 458.878472 927.021376 448.578856 925.887145 438.151325zM893.885642 436.275397c-5.298208 5.647771-13.245619 7.375599-21.722872 5.468292-7.820498-1.505379-14.688241-6.803787-16.255579-14.942069-1.84355-7.778526 0.444898-17.060433 6.368482-22.676625 2.701568-3.147466 6.623309-4.546917 10.438123-5.563628 2.034421-0.095535 4.090627-0.201463 6.146033-0.095535 2.066799 0.529841 4.154783 0.82664 6.221382 1.452016l6.028513 2.733147c1.611507 0.795261 3.975105 2.490711 5.91399 3.699292 2.224292 1.249553 3.623743 2.776118 5.38335 4.17457 0.593797 0.455291 1.134031 0.985132 1.69545 1.505379-0.169085 0.911782-0.233042 1.811971-0.41332 2.71316C902.002938 422.58388 899.161864 430.605841 893.885642 436.275397zM548.365904 468.595884c0 40.756367 33.039599 73.795966 73.795966 73.795966 40.756367 0 73.795966-33.039599 73.795966-73.795966s-33.039599-73.795966-73.795966-73.795966C581.405503 394.799918 548.365904 427.839517 548.365904 468.595884zM321.138164 292.519064c46.848237 0 84.805902-37.957665 84.805902-84.795509s-37.957665-84.806901-84.805902-84.806901c-46.827251 0-84.796508 37.969057-84.796508 84.806901S274.311913 292.519064 321.138164 292.519064zM758.108299 578.654065c-9.059658-15.535867-20.716754-5.171294-20.716754-5.171294s-66.028033 54.371936-165.72264 24.584132c-99.694607-29.776412-138.543068-170.904527-147.603525-194.196934-9.050064-23.312394-25.887049-38.847461-45.311279-34.958098-64.725916 5.181887-91.854123-4.059048-119.108245-15.54646-24.605917-10.353181-50.494165-56.957982-91.91708-27.179772C61.548166 423.283606 54.988614 551.377958 69.325493 565.704444c16.827591 16.827591 34.948705 3.87877 38.848461-15.534068 10.342588-41.433508 32.362458-90.624557 66.018439-124.290131-68.624672 221.398492 21.998885 440.196747 33.655981 459.609385 11.656297 19.42423 31.068935 10.363773 36.261215-2.586047-21.246595-201.185796 10.576429-273.296905 11.657096-275.744645-23.303001 146.299409 0 265.381871 0 265.381871s7.766934 20.726348 25.876656 19.434623c18.131507-1.303116 28.49528-16.838983 24.61651-33.666374-11.656297-217.515125 60.835753-346.987143 82.855624-385.824011 27.192164 91.927473 85.452263 122.996608 100.98813 142.432231-36.262214 141.116723-3.889163 209.731802 3.877771 244.685303 7.778326 34.959098 20.716754 37.544345 36.262214 38.836869 15.534068 1.292524 24.595524-18.120115 20.716754-33.655981-10.374966-63.438189 2.574654-103.578174 2.574654-121.699288 34.968691 67.321556 76.391806 122.991812 89.341427 141.112726 12.948821 18.131707 33.665575 19.412838 42.715639 14.242344 9.070051-5.171294 19.434623-16.827591 10.363573-33.655981-60.846346-85.447467-54.382329-163.132796-56.968575-203.262188C715.371674 649.864984 767.168756 594.189132 758.108299 578.654065zM950.387333 200.931361l0 0.010593c-5.234251-5.425322-11.804996-8.880179-18.311185-11.094878l-0.189871-0.07355-0.159492-0.021985-0.254028-0.07355 0.116521 0.031579-0.126914-0.031579c-7.30105-1.589522-15.323011-2.002842-23.058566 0.349363l0.021985-0.020986-0.021985 0c-3.835799 1.16561-7.449149 2.966988-10.671165 5.26583l-1.345088 1.007117c-2.66999 2.119363-4.96983 4.534526-6.994658 7.131165l0 0.010593c-4.630061 6.040105-7.692385 12.843892-9.768777 19.730623l0 0.010393-0.010393 0.021985c-0.773276 2.71316-1.345088 5.4567-1.875928 8.211832l-0.126914-0.126914c-3.432873-3.623743-7.311643-6.728438-11.360298-9.463384l-0.020986-0.020986 0 0c-4.090627-2.734146-8.487845-5.202872-13.267605-6.972673l0 0.010593c-4.768367-1.780393-9.897689-2.987974-15.247662-3.072917l0.009593 0c-5.319194-0.105928-10.755907 0.847625-15.757317 3.030945l0 0c-3.528408 1.483594-6.771409 3.49583-9.696426 5.837642-1.207581 0.94416-2.341812 1.939885-3.444465 2.978581-3.803221 3.622944-7.152151 8.032354-9.314485 13.181663-2.204305 5.129322-3.051131 10.829458-2.510698 16.361707l0 0c0.476477 5.520657 2.236684 10.712937 4.63106 15.344996 1.737422 3.326944 3.750857 6.378875 6.01812 9.21895 4.048655 5.128323 8.816223 9.536934 13.734488 13.447083l0 0.010593c7.735555 6.083076 16.212808 10.893414 24.859945 15.027012l0.041972 0.010393-0.031579-0.010393c17.367025 8.254803 35.902258 13.563604 54.731892 16.763634l0.021985 0 0.67774 0.137507 1.228567 0.180478 1.50458-1.313709c4.959438-4.280698 9.494962-8.901165 13.797445-13.606575 4.36564-4.725596 8.498438-9.67544 12.41898-14.79317 7.842483-10.172703 14.942069-21.066117 20.621219-32.871313l0 0c2.808696-5.933177 5.277422-12.122981 7.004251-18.703519 1.728028-6.581338 2.574654-13.659139 1.663072-20.92861l0 0c-0.464885-3.645728-1.419637-7.333628-3.062524-10.808472-1.134031-2.395176-2.553669-4.620467-4.184963-6.697859C951.976656 202.636405 951.193986 201.767594 950.387333 200.931361zM799.510228 236.790648l0-0.010393 0 0L799.510228 236.790648z" fill="#2C99DB" p-id="5031"></path></svg>