<?xml version="1.0" standalone="no"?><!DOCTYPE svg PUBLIC "-//W3C//DTD SVG 1.1//EN" "http://www.w3.org/Graphics/SVG/1.1/DTD/svg11.dtd"><svg t="1647599772988" class="icon" viewBox="0 0 1024 1024" version="1.1" xmlns="http://www.w3.org/2000/svg" p-id="4010" xmlns:xlink="http://www.w3.org/1999/xlink" width="64" height="64"><defs><style type="text/css"></style></defs><path d="M512 1024a512 512 0 1 1 512-512 512 512 0 0 1-512 512z m-19.7376-661.2224c22.8352 22.8608 13.1328 65.6128-12.8 95.7952a94.0032 94.0032 0 0 0 56.8832-60.2624c10.7008-44.2624-11.0336-59.8784-33.4848-85.5552s-20.48-72.5248 1.4848-85.1968a63.5904 63.5904 0 0 0-55.9616 49.6384c-8.7552 45.696 20.9664 62.72 43.7248 85.5808z m78.336 69.12s52.0448-26.24 45.2608-66.1248-56.8832-59.8016-46.2336-87.5008 13.5936-33.1008 13.5936-33.1008-75.8784 46.2336-28.16 89.4464 43.1616 59.3664 15.5392 97.28z m-167.3472 24.32s52.0192-26.2912 45.184-66.1248-56.8832-59.8272-46.2336-87.5264 13.7216-33.0752 13.7216-33.0752-75.8272 46.2336-28.16 89.4208 43.3152 59.3664 15.5392 97.28z m-123.3664 340.224h428.672a39.2448 39.2448 0 0 0 38.1184-40.2944H241.7664a39.2448 39.2448 0 0 0 38.1184 40.2944z m512.9216-237.2864c-8.2688-59.3664-84.1216-62.2336-84.1216-62.2336 0-18.9952-25.2416-30.1056-25.2416-30.1056H320.64c-23.3216 0-26.7008 32.5376-26.7008 32.5376 4.8896 182.8352 115.2 243.2 115.2 243.2h190.1568a394.0352 394.0352 0 0 0 64.7168-77.8752 269.056 269.056 0 0 0 62.2336-3.9168c15.9744-3.3792 74.8032-42.3168 66.56-101.5808z m-368.0768 151.7312c-92.3392-67.0464-83.1488-208.64-83.1488-208.64h51.2c-28.16 80.256 27.6736 181.4016 35.4304 195.5328s-3.4048 13.1072-3.4048 13.1072z m296.96-83.2a43.776 43.776 0 0 1-41.3952 4.9152 224.0512 224.0512 0 0 0 26.7008-101.1456c4.3776 1.4336 7.8336-16.4864 38.9376 15.0784s-0.3584 67.0976-24.2432 81.1776z" fill="#FC6060" p-id="4011"></path></svg>