<?xml version="1.0" standalone="no"?><!DOCTYPE svg PUBLIC "-//W3C//DTD SVG 1.1//EN" "http://www.w3.org/Graphics/SVG/1.1/DTD/svg11.dtd"><svg t="1647599762009" class="icon" viewBox="0 0 1024 1024" version="1.1" xmlns="http://www.w3.org/2000/svg" p-id="3404" xmlns:xlink="http://www.w3.org/1999/xlink" width="64" height="64"><defs><style type="text/css"></style></defs><path d="M655.542857 54.857143c141.019429 0 255.616 112.493714 258.688 252.068571l0.054857 5.741715v586.898285A69.668571 69.668571 0 0 1 844.251429 969.142857a70.070857 70.070857 0 0 1-46.957715-18.066286l-2.779428-2.614857-2.194286-1.938285a213.412571 213.412571 0 0 0-136.210286-54.235429l-6.674285-0.091429H332.306286c-141.366857 0-256.073143-112.457143-259.108572-252.141714L73.142857 634.386286v-23.04c0-140.598857 112.987429-254.738286 253.458286-257.755429l5.705143-0.073143h40.923428v-40.850285c0-138.861714 110.262857-251.958857 248.356572-257.590858l5.778285-0.182857 5.028572-0.036571h23.149714z m0 63.049143h-23.149714c-107.885714 0-195.675429 86.948571-195.675429 194.761143v103.899428h-104.411428c-107.885714 0-195.675429 86.948571-195.675429 194.779429v23.04c0 107.373714 87.350857 194.742857 195.675429 194.742857h317.129143c70.857143 0 135.606857 26.349714 184.795428 70.034286l5.211429 4.754285a7.021714 7.021714 0 0 0 4.809143 2.176 6.4 6.4 0 0 0 6.546285-6.528V312.685714c0-107.373714-87.350857-194.742857-195.254857-194.742857z m0 42.605714c84.297143 0 152.448 68.260571 152.448 151.734857v94.317714h-309.76a6.656 6.656 0 0 0-6.729143 5.394286l-0.128 1.408v34.048c0 3.876571 2.925714 6.802286 6.838857 6.802286l309.778286-0.018286v363.629714c0 3.053714-2.614857 5.668571-5.668571 5.668572l-1.316572-0.219429-1.316571-0.219428a320.475429 320.475429 0 0 0-150.253714-37.394286H332.745143c-84.297143 0-152.448-68.242286-152.448-151.716571v-23.04c0-83.474286 68.571429-151.734857 152.448-151.734858H429.714286c3.510857 0 6.125714 2.614857 6.125714 6.089143v304.310857c0 3.474286 2.614857 6.089143 6.107429 6.089143h31.890285a5.961143 5.961143 0 0 0 6.125715-6.089143v-457.325714c0-83.913143 68.571429-151.734857 152.429714-151.734857h23.149714z" fill="#00B578" p-id="3405"></path></svg>