<?xml version="1.0" standalone="no"?><!DOCTYPE svg PUBLIC "-//W3C//DTD SVG 1.1//EN" "http://www.w3.org/Graphics/SVG/1.1/DTD/svg11.dtd"><svg t="1647160821301" class="icon" viewBox="0 0 1024 1024" version="1.1" xmlns="http://www.w3.org/2000/svg" p-id="27744" xmlns:xlink="http://www.w3.org/1999/xlink" width="64" height="64"><defs><style type="text/css"></style></defs><path d="M789.376 504.51968c-95.70304 0-179.64544-50.18624-227.08736-125.63968H463.49824c-47.4368 75.45344-131.37408 125.63968-227.08224 125.63968-10.70592 0-21.23776-0.69632-31.616-1.92v376.67328C204.8 930.92352 246.67136 972.8 298.32704 972.8h447.83104c51.65056 0 93.52704-41.87648 93.52704-93.52704V499.7376a269.24544 269.24544 0 0 1-50.30912 4.78208z m-144.2304 55.30112c36.37248 42.17856 24.97536 112.49152-25.48224 157.04576-16.43008 14.57152-35.03104 24.47872-53.86752 29.89568a112.19456 112.19456 0 0 0 34.71872-20.82816c39.39328-34.88768 48.3328-89.82016 19.87584-122.78784-28.44672-32.96768-83.4816-31.4624-122.88512 3.40992-39.43424 34.81088-48.3072 89.75872-19.8912 122.72128 6.76864 7.83872 15.08864 13.63456 24.23296 17.62816-15.14496-4.83328-28.79488-13.32736-39.46496-25.69216-36.39808-42.17344-25.0112-112.48128 25.46688-157.07136 50.432-44.5696 120.87296-46.5408 157.29664-4.32128z m-124.48768 292.75136c-97.92 0-177.24416-79.36-177.24416-177.23904s79.32416-177.19808 177.24416-177.19808c17.96096 0 35.31776 2.76992 51.73248 7.76192a144.92672 144.92672 0 0 0-20.46976-1.53088c-77.73184 0-140.75904 63.03232-140.75904 140.73344 0 77.76768 63.03232 140.77952 140.75904 140.77952 77.74208 0 140.76928-63.01184 140.76928-140.77952 0-5.07904-0.36864-10.09152-0.896-15.08864 3.83488 14.53568 6.09792 29.66016 6.09792 45.33248 0.00512 97.8688-79.32928 177.2288-177.23392 177.2288z" fill="#FFAF22" p-id="27745"></path><path d="M235.47904 52.10624C142.88896 52.10624 65.9968 119.71584 51.2 206.75584c24.08448 4.64384 45.39392 8.35584 66.66752 12.02688 46.29504 11.12576 66.66752 5.54496 73.14944 0 2.77504-5.54496 8.35072-25.92256-14.82752-23.14752-23.14752 2.76992-66.67264 8.35072-63.8976-17.60256 5.54496-28.7232 58.35264-28.7232 99.10272-17.60256 0 0-8.35072-14.82752-29.62944-17.60256-23.14752-2.77504-35.20512-2.77504-32.39936-17.60256 0-14.83264 17.60256-23.14752 46.29504-5.54496 20.37248 14.82752 25.91744 25.92256 40.75008 43.52512 0 0 70.37952 14.82752 111.1296 43.52 0 0 32.39936 23.14752-5.54496 46.29504-32.39936 11.12576-37.98016-8.35072-101.87776 17.60256-61.12256 23.21408-125.02016 63.96416-137.07776 77.824-3.70688 3.712-5.54496 7.41888-7.41376 10.1888 34.27328 37.98016 84.2752 62.05952 138.92096 62.05952 102.81472 1.83808 187.0848-81.50016 187.0848-183.3728S337.3568 52.10624 235.47904 52.10624zM789.376 51.2C687.0784 51.2 604.16 134.1184 604.16 236.416c0 102.29248 82.9184 185.216 185.216 185.216 102.29248 0 185.216-82.92352 185.216-185.216 0-102.2976-82.92864-185.216-185.216-185.216z m66.15552 286.60224c-43.75552 29.54752-107.40224 23.77216-145.47456-12.98944-27.3152-26.368-41.70752-58.40896-38.58432-96.25088 3.78368-45.65504 26.51648-80.27136 68.34688-99.99872 41.94816-19.77856 82.88256-15.60064 121.28256 10.42432 17.36192 11.79136 30.32576 27.52512 39.13216 46.6944 2.48832 5.44768 1.87904 8.70912-3.75808 11.9296-34.00704 19.42016-67.82976 39.2448-101.73952 58.80832-11.41248 6.59968-22.1696 4.2752-27.73504-5.80608-5.1456-9.3184-3.29216-18.29376 5.89312-23.90528 17.17248-10.50112 34.64704-20.5056 51.9936-30.67392 6.27712-3.6864 12.61568-7.25504 18.92864-10.87488 7.28064-4.16256 7.424-6.64576 0.8704-12.2112-12.09344-10.24-25.94816-16.70144-41.66656-18.58048-31.66208-3.77856-58.38336 6.29248-77.62432 31.70304-20.1728 26.63424-22.85056 56.50944-8.70912 86.7328 12.8512 27.53024 42.34752 47.69792 75.88352 45.9008 13.27104 0.83968 26.26048-3.06176 38.81984-9.06752 13.25056-6.33856 20.83328-3.9936 28.4672 8.71424 7.06048 11.7504 7.06048 11.7504-4.3264 19.45088z m45.94176-60.81024c-4.54144 3.2-9.3952 5.9648-14.09536 8.92928-3.22048 2.03776-5.46816 1.26976-7.33184-2.04288A931.63008 931.63008 0 0 0 866.84672 261.12c-1.92512-3.26656-1.34144-5.49376 2.00192-7.35232 7.83872-4.34688 15.616-8.85248 23.41376-13.31712 1.9968-1.13152 4.22912-2.08896 5.61664 0.39936 4.2496 7.6288 9.18016 15.00672 9.81504 24.0896 0.16896 5.2224-2.2016 9.21088-6.2208 12.05248z" fill="#FFCD7D" p-id="27746"></path></svg>