<?xml version="1.0" standalone="no"?><!DOCTYPE svg PUBLIC "-//W3C//DTD SVG 1.1//EN" "http://www.w3.org/Graphics/SVG/1.1/DTD/svg11.dtd"><svg t="1647599791425" class="icon" viewBox="0 0 1024 1024" version="1.1" xmlns="http://www.w3.org/2000/svg" p-id="4881" xmlns:xlink="http://www.w3.org/1999/xlink" width="64" height="64"><defs><style type="text/css"></style></defs><path d="M436.9 297.2s-167-248-364.3 75.9c0 0 25.3 182.2 202.4 278.3 0 0 147.3 117.4 167 136.6 0 0 45.5 65.8 81 5.1 0 0 341.6-225.2 283.4-445.3-0.1 0-136.7-359.3-369.5-50.6" fill="#F26161" p-id="4882"></path><path d="M710.2 524.9s-65.8-318.8-253-45.5l81 349.2 25.3 10.1 283.4-86 81-161.9-50.6-81L771 494.6l-60.8 30.3z m0 0" fill="#F2D6C7" p-id="4883"></path><path d="M442 810.8c-5.6 0-11.1-2.1-15.2-5.9-1.5-1.4-152.7-137.3-234-184.4-1.3-0.7-2.5-1.6-3.6-2.6-4.9-4.2-119-105.4-116.9-229.4 1.1-63.5 32.1-120.6 92.2-169.7 0.6-0.5 1.2-0.9 1.8-1.3 3-2 75.5-49.2 160.1-29.6 45 10.4 84.2 37.3 117.1 80 35.6-63.1 109.2-137.7 220.1-118 0.6 0.1 1.1 0.2 1.7 0.4 56 14.3 162.4 74 163.9 197.2 0.2 12.6-9.9 22.9-22.5 23-12.6 0-22.9-9.9-23-22.5-1.4-114.9-118.7-150.6-128.9-153.4-130.1-22.4-183.9 121.1-186.2 127.2-3 8.3-10.6 14.1-19.3 14.9-8.7 0.8-17.2-3.5-21.7-11.1-30.4-51.7-67.7-83.1-110.9-93.2-61.3-14.4-117.1 18-124.5 22.6-48.5 40-73.6 85.2-74.4 134.3-1.6 96.3 87.3 181.5 99.9 193 85.7 50.5 233.3 183.1 239.6 188.8 9.3 8.4 10.1 22.8 1.7 32.2-4.6 5-10.8 7.5-17 7.5z m0 0" fill="#1A1A1A" p-id="4884"></path><path d="M548.3 874.9c-10.5 0-19.7-7.2-22.1-17.4-0.2-1-23.6-96.5-62.4-175.8-3.6-7.8-83.3-182.3 0.5-268.5 5.2-5.6 53.8-56.5 120.2-56.5 21.8 0 43.1 5.5 63.4 16.3 8.8 4.2 67.4 34.6 84.1 111.1 18.2-8 42.9-15.7 69.9-15.7 38.7 0 73.5 16 100.7 46.4 34.3 38.4 76.6 131.9-7.8 211.9-6.2 6.3-75.8 74.3-166.4 78.9-76.4 17.5-148.8 43-159.6 56.2-3.7 8-11.8 13.1-20.5 13.1z m36.2-472.7c-48.2 0-86.4 41.4-86.8 41.8-0.2 0.2-0.4 0.5-0.6 0.7-51.9 53-12 174.9 7.7 217.4 26.5 54.1 45.8 114 56.4 150.5 15.9-8.5 39.3-18 73.9-28.8 43-13.4 83.5-22.6 85.2-23 1.4-0.3 2.7-0.5 4.1-0.5 75.6-3 137.5-65.1 138.1-65.7l0.6-0.6c72.3-68.3 12.4-140.8 5.3-148.8-18.7-20.9-40.6-31.1-66.7-31.1-39.8 0-74.8 24.3-75.2 24.5-6.8 4.8-15.8 5.5-23.3 1.8s-12.3-11.2-12.6-19.6c-2.8-79.3-61.8-106.2-62.3-106.5-0.5-0.2-1.1-0.5-1.6-0.8-13.6-7.5-27.9-11.3-42.2-11.3z m0 0" fill="" p-id="4885"></path><path d="M781.6 421.2m-23.1 0a23.1 23.1 0 1 0 46.2 0 23.1 23.1 0 1 0-46.2 0Z" fill="" p-id="4886"></path></svg>