<?xml version="1.0" standalone="no"?><!DOCTYPE svg PUBLIC "-//W3C//DTD SVG 1.1//EN" "http://www.w3.org/Graphics/SVG/1.1/DTD/svg11.dtd"><svg t="1647153200409" class="icon" viewBox="0 0 1024 1024" version="1.1" xmlns="http://www.w3.org/2000/svg" p-id="10607" xmlns:xlink="http://www.w3.org/1999/xlink" width="64" height="64"><defs><style type="text/css"></style></defs><path d="M795.5 958.7l164.1-51.2v-21.3L755.4 631.9l-94.5 28.2L549.2 647l-107.7 13.1L326 647l-104.4 33.3L64.4 933v21.2l157.2-59.5 176.1 64.6h0.1l200.8-63 196.9 62.4z" fill="#3173E7" p-id="10608"></path><path d="M221.6 873.5L64.4 933l157.2-274L326 625.7z" fill="#E7F5FD" p-id="10609"></path><path d="M221.6 873.5l176.2 64.6 43.7-299.2L326 625.7z" fill="#5EADEF" p-id="10610"></path><path d="M598.6 875.1l-200.9 63 43.8-299.2 107.7-13.2z" fill="#E7F5FD" p-id="10611"></path><path d="M598.6 875.1l196.9 62.3-134.6-298.5-111.7-13.2z" fill="#5EADEF" p-id="10612"></path><path d="M959.6 886.2l-164.1 51.2-134.6-298.5 94.5-28.2z" fill="#E7F5FD" p-id="10613"></path><path d="M755.4 610.7l204.2 275.5-39.7 12.4-204-275.4z" fill="#F0F8FC" p-id="10614"></path><path d="M434.7 783.5a69.8 39.2 0 1 0 139.6 0 69.8 39.2 0 1 0-139.6 0Z" fill="#FCCA4C" p-id="10615"></path><path d="M789.7 364.6c0-158.7-129.7-287.2-288.9-285.2C343 81.4 217.4 210.2 219.2 368c1 83.2 37.4 157.7 95.1 209.3l174.1 174.1c8.9 8.9 23.2 8.9 32.1 0l174.1-174.1c58.5-52.4 95.1-128.4 95.1-212.7z m-285.2 95c-53.7 0-97.1-44.7-95-98.8 1.9-49.4 41.9-89.4 91.3-91.3 54.1-2.1 98.8 41.3 98.8 95 0 52.5-42.7 95.1-95.1 95.1z m0 0" fill="#E7F5FD" p-id="10616"></path><path d="M504.5 772.6c-10 0-19.3-3.9-26.4-10.9L304.3 587.8c-30.6-27.5-54.8-60.2-72-97.3-17.9-38.5-27.2-79.7-27.6-122.5-0.9-80.2 29.3-155.9 85.1-213.1 55.8-57.2 130.7-89.3 210.9-90.3 40.8-0.5 80.5 7.1 118 22.5 36.1 14.9 68.6 36.4 96.5 64 27.9 27.6 49.9 59.8 65.2 95.8 15.9 37.2 24 76.8 24 117.6 0 43.4-9.1 85.2-27 124.4-17.2 37.7-41.7 71-72.7 98.8L530.9 761.6c-7.1 7.1-16.4 11-26.4 11z m0-678.7H501c-149 1.9-268.9 124.7-267.2 273.8 0.9 75.6 33.7 148 90.2 198.5l0.6 0.6L498.8 741c1.5 1.5 3.5 2.4 5.7 2.4s4.2-0.8 5.7-2.4l174.1-174.1 0.6-0.6c57.3-51.3 90.2-124.9 90.2-201.7 0-72.9-28.6-141.3-80.5-192.5-51-50.5-118.4-78.2-190.1-78.2z m0 380.4c-30.1 0-58.1-12-79-33.7-20.9-21.7-31.7-50.2-30.6-80.4 2.2-56.9 48.5-103.1 105.3-105.3 30.1-1.2 58.6 9.7 80.3 30.6 21.7 20.9 33.7 49 33.7 79.1 0 60.5-49.2 109.7-109.7 109.7z m0-190.2c-1.1 0-2.1 0-3.2 0.1-41.7 1.6-75.6 35.5-77.2 77.2-0.9 22.1 7.1 43 22.4 58.9 15.3 15.9 35.9 24.7 58 24.7 44.4 0 80.5-36.1 80.5-80.5 0-22-8.8-42.6-24.7-58-15.2-14.5-34.9-22.4-55.8-22.4z" fill="#3173E7" p-id="10617"></path><path d="M780.4 247c-15.3-36-37.3-68.2-65.2-95.8-27.9-27.6-60.4-49.1-96.5-64-37.4-15.4-77.2-23-118-22.5-2.9 0-5.8 0.1-8.8 0.2 35.1 1.4 69.2 8.9 101.6 22.3 36.1 14.9 68.6 36.4 96.5 64 27.9 27.6 49.9 59.8 65.2 95.8 15.9 37.2 24 76.8 24 117.6 0 43.4-9.1 85.2-27 124.4-17.2 37.7-41.7 71-72.7 98.8L505.7 761.6c-4 4-8.7 6.9-13.8 8.8 4 1.4 8.2 2.2 12.6 2.2 10 0 19.3-3.9 26.4-10.9l173.9-173.9c31-27.8 55.4-61.1 72.7-98.8 17.9-39.2 27-81 27-124.4-0.1-40.8-8.2-80.4-24.1-117.6z" fill="#6F9DEE" p-id="10618"></path></svg>