<?xml version="1.0" standalone="no"?><!DOCTYPE svg PUBLIC "-//W3C//DTD SVG 1.1//EN" "http://www.w3.org/Graphics/SVG/1.1/DTD/svg11.dtd"><svg t="1647789604237" class="icon" viewBox="0 0 1024 1024" version="1.1" xmlns="http://www.w3.org/2000/svg" p-id="5612" xmlns:xlink="http://www.w3.org/1999/xlink" width="64" height="64"><defs><style type="text/css"></style></defs><path d="M0 0m136.533333 0l750.933334 0q136.533333 0 136.533333 136.533333l0 750.933334q0 136.533333-136.533333 136.533333l-750.933334 0q-136.533333 0-136.533333-136.533333l0-750.933334q0-136.533333 136.533333-136.533333Z" fill="#FFCB63" p-id="5613"></path><path d="M733.7472 562.363733v68.283734c0 28.416-22.528 51.5072-50.176 51.5072H340.309333c-27.648 0-50.176-23.0912-50.176-51.5072V562.346667a42.666667 42.666667 0 0 0 0-83.626667v-68.8128C290.133333 381.508267 312.661333 358.4 340.309333 358.4h343.261867c27.648 0 50.176 23.108267 50.176 51.5072v68.778667a42.666667 42.666667 0 1 0 0 83.677866z m-29.2352 32.9728a76.834133 76.834133 0 0 1 0-146.414933v-37.410133c0-10.461867-8.2944-18.978133-18.500267-18.978134H342.749867c-10.1888 0-18.4832 8.516267-18.4832 18.978134v45.175466a76.7488 76.7488 0 0 1 36.573866 65.450667A76.7488 76.7488 0 0 1 324.266667 587.5712v44.680533c0 10.461867 8.2944 18.961067 18.4832 18.961067h343.261866c10.205867 0 18.500267-8.4992 18.500267-18.944v-36.932267z" fill="#FFFFFF" p-id="5614"></path><path d="M421.154133 497.698133a18.158933 18.158933 0 0 1-5.341866-12.987733 18.210133 18.210133 0 0 1 18.261333-18.2784h144.401067a18.193067 18.193067 0 0 1 18.261333 18.261333 18.210133 18.210133 0 0 1-18.261333 18.295467l-144.384 0.136533a18.466133 18.466133 0 0 1-12.936534-5.4272z m0 77.277867a18.158933 18.158933 0 0 1-5.341866-13.0048 18.210133 18.210133 0 0 1 18.261333-18.261333l144.3328 0.0512a18.210133 18.210133 0 0 1 18.261333 18.2784 18.210133 18.210133 0 0 1-18.261333 18.2784h-144.384c-5.0176 0-9.591467-2.082133-12.868267-5.358934z" fill="#FFFFFF" p-id="5615"></path></svg>