<?xml version="1.0" standalone="no"?><!DOCTYPE svg PUBLIC "-//W3C//DTD SVG 1.1//EN" "http://www.w3.org/Graphics/SVG/1.1/DTD/svg11.dtd"><svg t="1647789610745" class="icon" viewBox="0 0 1024 1024" version="1.1" xmlns="http://www.w3.org/2000/svg" p-id="5909" xmlns:xlink="http://www.w3.org/1999/xlink" width="64" height="64"><defs><style type="text/css"></style></defs><path d="M512 512m-448 0a448 448 0 1 0 896 0 448 448 0 1 0-896 0Z" fill="#FFBD27" p-id="5910"></path><path d="M413.776 279.52l32.256 41.92h112.864l32.256-41.92 3.232-6.448v-3.232c0-6.448-3.232-9.664-9.68-12.896 0 0-45.152-9.664-83.84-9.664-38.72 0-83.856 9.664-83.856 9.664-16.128 6.448-3.232 22.576-3.232 22.576z m154.8 70.96H452.48C362.176 382.72 288 482.704 288 576.24c0 116.08 64.496 170.912 222.528 170.912 158.032 0 222.528-54.832 222.528-170.928 0-93.52-74.176-193.504-164.48-225.76z m22.576 238.64c6.448 0 12.896 6.448 12.896 12.912 0 6.448-6.448 12.896-12.896 12.896h-64.496v45.152c0 6.448-6.448 12.896-12.896 12.896-6.464 0-12.912-6.448-12.912-12.896v-41.92h-64.496c-6.448 0-12.896-6.464-12.896-12.912s6.448-12.896 12.896-12.896h64.496v-35.472h-64.496c-6.448 0-12.896-6.448-12.896-12.912 0-6.448 6.448-12.896 12.896-12.896h67.728v-3.216s-3.232 0-3.232-3.232l-51.6-61.28c-6.448-3.216-6.448-12.896 0-19.344s16.128-3.232 19.36 3.232l45.152 51.6 45.136-51.6c6.464-6.464 12.912-6.464 19.36-3.232 6.448 6.448 6.448 12.896 3.216 19.36l-51.6 61.28c0 3.2-3.216 3.2-6.448 3.2h67.728c6.448 0 12.896 6.464 12.896 12.912s-6.448 12.896-12.896 12.896h-64.496v35.472h64.496z" fill="#FFFFFF" p-id="5911"></path></svg>