<?xml version="1.0" standalone="no"?><!DOCTYPE svg PUBLIC "-//W3C//DTD SVG 1.1//EN" "http://www.w3.org/Graphics/SVG/1.1/DTD/svg11.dtd"><svg t="1647789618969" class="icon" viewBox="0 0 1024 1024" version="1.1" xmlns="http://www.w3.org/2000/svg" p-id="6059" xmlns:xlink="http://www.w3.org/1999/xlink" width="64" height="64"><defs><style type="text/css"></style></defs><path d="M356.913594 481.320859h-232.471106A124.512933 124.512933 0 0 1 0 356.913594v-232.471106A124.548156 124.548156 0 0 1 124.336819 0h232.471106a124.548156 124.548156 0 0 1 124.407265 124.336819v232.471106a124.477711 124.477711 0 0 1-124.407265 124.407265z m-232.471106-426.197029a69.494772 69.494772 0 0 0-69.389103 69.389103v232.471107a69.459549 69.459549 0 0 0 69.389103 69.459548h232.471106a69.459549 69.459549 0 0 0 69.459549-69.459548v-232.471107a69.459549 69.459549 0 0 0-69.459549-69.389103z m775.115024 426.197029h-232.471106a124.477711 124.477711 0 0 1-124.301596-124.407265v-232.471106A124.512933 124.512933 0 0 1 667.086406 0.105669h232.471106a124.548156 124.548156 0 0 1 124.442488 124.336819v232.471106a124.548156 124.548156 0 0 1-124.442488 124.407265z m-232.471106-426.197029a69.459549 69.459549 0 0 0-69.35388 69.389103v232.471107a69.424326 69.424326 0 0 0 69.35388 69.459548h232.471106a69.459549 69.459549 0 0 0 69.494772-69.459548v-232.471107a69.529994 69.529994 0 0 0-69.494772-69.389103z m-310.172812 968.87617h-232.471106A124.512933 124.512933 0 0 1 0 899.592735v-232.471106a124.548156 124.548156 0 0 1 124.336819-124.336819h232.471106a124.477711 124.477711 0 0 1 124.407265 124.336819v232.471106a124.512933 124.512933 0 0 1-124.301596 124.407265z m-232.471106-426.197028a69.424326 69.424326 0 0 0-69.389103 69.389103v232.471106a69.459549 69.459549 0 0 0 69.283434 69.389103h232.471106a69.494772 69.494772 0 0 0 69.459549-69.459549v-232.471106a69.459549 69.459549 0 0 0-69.35388-69.318657z m775.115024 426.197028h-232.471106a124.477711 124.477711 0 0 1-124.301596-124.407265v-232.471106a124.512933 124.512933 0 0 1 124.301596-124.336819h232.471106a124.512933 124.512933 0 0 1 124.442488 124.336819v232.471106a124.548156 124.548156 0 0 1-124.442488 124.407265z m-232.471106-426.197028a69.424326 69.424326 0 0 0-69.35388 69.389103v232.471106a69.424326 69.424326 0 0 0 69.35388 69.459549h232.471106a69.494772 69.494772 0 0 0 69.494772-69.459549v-232.471106a69.494772 69.494772 0 0 0-69.494772-69.389103z m0 0" fill="#FDC05C" p-id="6060"></path></svg>