<?xml version="1.0" standalone="no"?><!DOCTYPE svg PUBLIC "-//W3C//DTD SVG 1.1//EN" "http://www.w3.org/Graphics/SVG/1.1/DTD/svg11.dtd"><svg t="1647599770442" class="icon" viewBox="0 0 1024 1024" version="1.1" xmlns="http://www.w3.org/2000/svg" p-id="3865" xmlns:xlink="http://www.w3.org/1999/xlink" width="64" height="64"><defs><style type="text/css"></style></defs><path d="M111.914667 1022.762667a26.709333 26.709333 0 0 1-26.666667-26.709334v-357.717333h-15.872A26.709333 26.709333 0 0 1 42.666667 611.669333v-32.682666a26.666667 26.666667 0 0 1 26.709333-26.666667h200.192a30.592 30.592 0 0 0 30.549333-30.549333V219.818667h-55.466666a30.549333 30.549333 0 0 1-30.549334-30.506667v-3.072a26.752 26.752 0 0 1 15.872-24.405333L587.264 3.029333a26.581333 26.581333 0 0 1 21.717333 0l358.4 158.933334a26.709333 26.709333 0 0 1 15.872 24.362666v2.986667a30.549333 30.549333 0 0 1-30.506666 30.506667h-56.32v776.277333a26.709333 26.709333 0 0 1-26.709334 26.709333z m59.392-353.834667v195.456a30.549333 30.549333 0 0 0 30.549333 30.549333h67.754667a30.549333 30.549333 0 0 0 30.549333-30.549333v-195.456a30.592 30.592 0 0 0-30.549333-30.549333H201.856a30.592 30.592 0 0 0-30.592 30.549333z m215.082666 43.989333v109.610667a30.549333 30.549333 0 0 0 30.549334 30.506667h109.525333a30.549333 30.549333 0 0 0 30.549333-30.506667v-109.610667a30.549333 30.549333 0 0 0-30.549333-30.506666H416.938667a30.549333 30.549333 0 0 0-30.549334 30.506666z m254.037334-0.853333v109.525333a30.549333 30.549333 0 0 0 30.549333 30.549334h109.525333a30.549333 30.549333 0 0 0 30.549334-30.549334v-109.525333a30.549333 30.549333 0 0 0-30.549334-30.506667h-109.525333a30.549333 30.549333 0 0 0-30.549333 30.464zM384.170667 327.509333v109.525334a30.506667 30.506667 0 0 0 30.506666 30.549333h109.568a30.506667 30.506667 0 0 0 30.506667-30.549333V327.509333a30.549333 30.549333 0 0 0-30.506667-30.549333H414.677333a30.549333 30.549333 0 0 0-30.506666 30.506667z" fill="#359EFF" p-id="3866"></path></svg>