<?xml version="1.0" standalone="no"?><!DOCTYPE svg PUBLIC "-//W3C//DTD SVG 1.1//EN" "http://www.w3.org/Graphics/SVG/1.1/DTD/svg11.dtd"><svg t="1647599779828" class="icon" viewBox="0 0 1024 1024" version="1.1" xmlns="http://www.w3.org/2000/svg" p-id="4445" xmlns:xlink="http://www.w3.org/1999/xlink" width="64" height="64"><defs><style type="text/css"></style></defs><path d="M791.523 692.633a264.757 264.757 0 0 0 16.47-25.585c33.067 4.573 66.038 11.422 96.758 20.964a439.884 439.884 0 0 1 16.9 5.62 446.583 446.583 0 0 1-24.066 46.602c-30.61-22.47-66.002-38.343-106.062-47.6z m-19.528 23.927c42.748 7.981 79.636 23.605 110.833 46.896C802.235 882.077 666.218 960 512 960c-154.143 0-290.104-77.848-370.711-196.372 30.313-22.355 65.955-37.534 107.077-45.56 60.352 65.292 154.873 107.331 261.123 107.331 107.065 0 202.22-42.686 262.506-108.839z m48.785-75.54a241.214 241.214 0 0 0 9.933-28.394c43.939-3.32 82.936-1.93 116.976 4.116a444.507 444.507 0 0 1-15.623 51.328 465.033 465.033 0 0 0-19.22-6.422c-29.461-9.152-60.667-15.9-92.066-20.629z m15.994-56.432a234.17 234.17 0 0 0 2.688-35.422c0-49.095-15.3-95.199-42.125-135.152-4.277-87.032-13.392-144.503-27.345-172.412-1.736-3.472-4.954-9.628-16.504-7.351-28.263 5.572-67.64 25.402-118.131 59.49-38.788-13.41-81.296-20.808-125.868-20.808-44.95 0-87.8 7.524-126.852 21.149-50.019-33.682-89.068-53.291-117.147-58.827-11.55-2.277-14.769 3.88-16.504 7.351-13.895 27.794-22.992 84.903-27.292 171.329-26.858 39.971-42.178 86.103-42.178 135.23 0 12.288 0.958 24.387 2.815 36.25-41.147-2.44-78.309-0.795-111.496 4.973C66.343 564.935 64 538.741 64 512 64 264.576 264.576 64 512 64s448 200.576 448 448c0 26.52-2.304 52.503-6.724 77.759-34.493-6.21-73.322-7.92-116.502-5.171z m-608.1 109.709c-38.428 9.227-72.51 24.608-102.147 46.126a446.593 446.593 0 0 1-24.065-46.536 443.718 443.718 0 0 1 14.778-4.87c30.02-9.325 62.188-16.077 94.496-20.648a265.632 265.632 0 0 0 16.938 25.928z m-29.893-51.903c-30.578 4.709-60.935 11.343-89.635 20.258a468.628 468.628 0 0 0-17.117 5.673 444.504 444.504 0 0 1-15.567-50.954c32.8-5.603 70.148-6.933 112.029-3.946a241.548 241.548 0 0 0 10.29 28.969z m204.222-4.442c-4.546 18.711-0.371 45.29 28.173 53.84 19.439 5.82 35.41 2.513 50.609-9.118 9.902-7.577 17.34-17.748 20.312-26.245-11.778-3.004-20.232-11.217-20.232-20.877 0-12.205 13.492-22.1 30.135-22.1s30.135 9.895 30.135 22.1c0 9.697-8.518 17.935-20.366 20.911 2.877 8.574 10.392 18.942 20.446 26.636 15.199 11.631 31.17 14.939 50.609 9.117 28.776-8.618 32.785-35.561 28.06-54.293-47.069-12.463-81.763-55.347-81.763-106.336 0-60.746 49.245-109.99 109.991-109.99s109.991 49.244 109.991 109.99c0 60.747-49.245 109.991-109.99 109.991-0.26 0-0.52 0-0.778-0.002 3.01 30.384-19.037 59.874-48.951 68.662-25.553 7.506-48.786 3.454-68.904-11.942-4.298-3.289-12.035-9.79-18.615-20.231-6.52 10.193-14.106 16.562-18.345 19.806-20.118 15.396-43.351 19.448-68.904 11.942-29.774-8.747-51.755-38.003-48.991-68.237-0.246 0.002-0.491 0.002-0.737 0.002-60.746 0-109.991-49.244-109.991-109.99 0-60.747 49.245-109.992 109.99-109.992 60.747 0 109.992 49.245 109.992 109.991 0 51.03-34.75 93.942-81.876 106.365z m-29.8-170.15c-9.888 0-17.903 8.016-17.903 17.903v93.774c0 9.887 8.015 17.902 17.902 17.902h2.367c9.887 0 17.902-8.015 17.902-17.902v-93.774c0-9.887-8.015-17.902-17.902-17.902h-2.367z m275.228 0c-9.887 0-17.902 8.016-17.902 17.903v93.774c0 9.887 8.015 17.902 17.902 17.902h2.367c9.887 0 17.902-8.015 17.902-17.902v-93.774c0-9.887-8.015-17.902-17.902-17.902h-2.367z" fill="#F87461" p-id="4446"></path></svg>