<?xml version="1.0" standalone="no"?><!DOCTYPE svg PUBLIC "-//W3C//DTD SVG 1.1//EN" "http://www.w3.org/Graphics/SVG/1.1/DTD/svg11.dtd"><svg t="1647599777493" class="icon" viewBox="0 0 1024 1024" version="1.1" xmlns="http://www.w3.org/2000/svg" p-id="4300" xmlns:xlink="http://www.w3.org/1999/xlink" width="64" height="64"><defs><style type="text/css"></style></defs><path d="M839.68 518.144c-8.192-11.776-24.576-26.112-58.368-26.112h-39.424c0.512-25.088-1.024-41.984-1.024-41.984h-550.4S179.2 555.52 226.304 638.464c29.696 51.712 47.616 66.56 72.704 92.16 42.496 43.008 93.696 43.008 93.696 43.008h144.384s51.2 0 93.184-41.472c9.728-9.728 18.432-17.92 27.648-27.648 144.896-8.192 181.76-109.056 185.856-122.368 2.56-7.68 12.8-38.912-4.096-64z m-41.984 46.592l-1.024 2.56c0 0.512-18.432 60.928-97.792 81.92 2.048-3.072 3.584-6.656 5.632-10.24 17.92-31.744 27.136-66.56 32.256-97.792H780.8c11.776 0 16.896 2.56 17.92 4.096 2.56 3.584 1.536 13.312-1.024 19.456z m-43.008 245.248H177.664c-34.816 37.376 192 61.44 192 61.44H563.2c-0.512 0 219.136-23.04 191.488-61.44m-238.08-404.48c0.512 2.048-6.144 4.608-8.704 3.584-69.12-43.52-52.224-104.448-7.168-148.992 34.816-33.792 60.416-50.688 60.416-104.448 0-4.608 10.24-5.632 11.776-3.584 86.016 121.856-105.472 128-56.32 253.44m-124.928 0c1.024 2.048-6.144 4.608-8.192 3.584-69.632-43.52-52.736-104.448-7.168-148.992 34.304-33.792 60.416-50.688 60.416-104.448 0-4.608 10.24-5.632 12.288-3.584 84.48 121.856-107.008 128-57.344 253.44" fill="#EFB336" p-id="4301"></path></svg>