<?xml version="1.0" standalone="no"?><!DOCTYPE svg PUBLIC "-//W3C//DTD SVG 1.1//EN" "http://www.w3.org/Graphics/SVG/1.1/DTD/svg11.dtd"><svg t="1647599788556" class="icon" viewBox="0 0 1024 1024" version="1.1" xmlns="http://www.w3.org/2000/svg" p-id="4736" xmlns:xlink="http://www.w3.org/1999/xlink" width="64" height="64"><defs><style type="text/css"></style></defs><path d="M128.453069 418.990676a101.786221 101.786221 0 0 1 3.266393-0.059351c53.100382 0 96.175433 41.599444 96.175433 92.909039 0 51.308573-43.075051 92.910063-96.175433 92.910063a98.892311 98.892311 0 0 1-3.266393-0.059352v162.650427h511.002276V256.338203H128.453069v162.652473z m763.169483 0.14224a100.181677 100.181677 0 0 1 3.334955 0.061398V256.338203H709.139427v511.005346h185.81808V604.947925a100.17349 100.17349 0 0 1-3.334955 0.062422c-53.145407 0-96.220459-41.612747-96.220459-92.942809 0-51.321876 43.076074-92.934622 96.220459-92.934622z" fill="#FEA546" p-id="4737"></path></svg>