<?xml version="1.0" standalone="no"?><!DOCTYPE svg PUBLIC "-//W3C//DTD SVG 1.1//EN" "http://www.w3.org/Graphics/SVG/1.1/DTD/svg11.dtd"><svg t="1647599764596" class="icon" viewBox="0 0 1024 1024" version="1.1" xmlns="http://www.w3.org/2000/svg" p-id="3553" xmlns:xlink="http://www.w3.org/1999/xlink" width="64" height="64"><defs><style type="text/css"></style></defs><path d="M0 0m170.666667 0l682.666666 0q170.666667 0 170.666667 170.666667l0 682.666666q0 170.666667-170.666667 170.666667l-682.666666 0q-170.666667 0-170.666667-170.666667l0-682.666666q0-170.666667 170.666667-170.666667Z" fill="#FF763C" opacity=".2" p-id="3554"></path><path d="M240.469333 810.666667v-51.2h27.178667v-215.68a117.845333 117.845333 0 0 1-39.893333-41.472 109.909333 109.909333 0 0 1 2.773333-113.28L304.128 268.8a26.453333 26.453333 0 0 1 9.941333-9.386667A28.416 28.416 0 0 1 327.68 256h368.64c4.821333 0 9.472 1.194667 13.610667 3.413333a26.453333 26.453333 0 0 1 9.941333 9.386667l73.386667 119.893333c16.170667 25.344 21.333333 55.594667 14.506666 84.48a115.285333 115.285333 0 0 1-51.413333 70.613334l-109.525333 12.501333a122.922667 122.922667 0 0 1-46.592-28.586667 122.538667 122.538667 0 0 1-40.234667 26.282667 128.512 128.512 0 0 1-95.957333 0 122.453333 122.453333 0 0 1-40.277334-26.282667c-12.970667 12.8-28.928 22.613333-46.592 28.629334-17.621333 6.058667-36.522667 8.149333-55.210666 6.186666V759.466667H512V810.666667H240.469333z m393.045334-219.818667v-25.088h165.632v25.088h-49.408v23.296h43.52v179.712h-25.088v-8.96h-103.936v9.728h-25.088v-180.48h41.472v-23.296h-47.104z m30.72 151.552v18.432h103.936V742.4h-103.936z m18.944-92.928v-11.264h-18.944v51.2c12.288-9.216 18.688-22.528 18.944-39.936z m-6.144 58.368l-12.8-11.008v22.016h103.936v-20.736h-19.968c-15.36 0-23.04-7.68-23.04-22.528v-37.376h-19.968v11.264c-0.512 26.624-9.728 46.08-28.16 58.368z m28.672-116.992v23.296h18.944v-23.296h-18.944z m49.152 85.504h13.312v-38.144h-20.992v31.488c0 4.352 2.56 6.656 7.68 6.656z m-185.6-97.536l18.944-18.432c16.896 12.032 31.488 24.064 43.52 35.84l-18.944 19.2c-10.24-11.264-24.832-23.552-43.52-36.608zM562.858667 640l18.944-18.432c16.896 12.288 31.232 24.32 42.752 36.608l-18.944 18.944c-9.984-11.52-24.32-23.808-42.752-37.12z m2.816 141.056c14.848-29.696 27.904-59.648 38.656-90.368l23.552 8.96a847.786667 847.786667 0 0 1-37.376 92.416l-24.832-11.008z" fill="#FF763C" p-id="3555"></path></svg>