<?xml version="1.0" standalone="no"?><!DOCTYPE svg PUBLIC "-//W3C//DTD SVG 1.1//EN" "http://www.w3.org/Graphics/SVG/1.1/DTD/svg11.dtd"><svg t="1647599767422" class="icon" viewBox="0 0 1024 1024" version="1.1" xmlns="http://www.w3.org/2000/svg" p-id="3699" xmlns:xlink="http://www.w3.org/1999/xlink" width="64" height="64"><defs><style type="text/css"></style></defs><path d="M598.9 234.9H236.2c-0.3 1.7-0.5 3.7-0.5 5.6V830h135V650c0-9.3 7.5-16.8 16.8-16.8H468c9.3 0 16.8 7.5 16.8 16.8v179.8h114.6V240.5c0.1-2-0.1-3.9-0.5-5.6zM329.6 301c5.6-2.8 13.3 0.5 19.8 8.2 6.5-7.9 14.3-11.2 19.9-8.4 7.5 3.8 8.4 17.1 1.9 30.4-4.7 9.4-12.4 16.6-19.4 17.7-1 0.3-2.1 0.5-3.1 0.5-7 0-15.7-7.2-21.2-17.8-6.3-13.3-5.5-26.8 2.1-30.6z m0.1 97.1c5.6-2.8 13.3 0.5 19.8 8.2 6.5-7.9 14.3-11.2 19.9-8.4 7.5 3.8 8.4 17.1 1.9 30.4-4.7 9.4-12.4 16.6-19.4 17.7-1 0.3-2.1 0.5-3.1 0.5-7 0-15.7-7.2-21.2-17.8-6.3-13.1-5.4-26.8 2.1-30.6z m42.9 127.1c-4.7 9.4-12.4 16.6-19.4 17.7-1 0.3-2.1 0.5-3.1 0.5-7 0-15.7-7.2-21.2-17.8-6.5-12.9-5.6-26.6 1.9-30.4 5.6-2.8 13.3 0.5 19.8 8.2 6.5-7.9 14.3-11.2 19.9-8.4 7.9 3.8 8.6 17.1 2.1 30.2zM466.2 301c5.6-2.8 13.3 0.5 19.8 8.2 6.5-7.9 14.3-11.2 19.9-8.4 7.5 3.8 8.4 17.1 1.9 30.4-4.7 9.4-12.4 16.6-19.4 17.7-1 0.3-2.1 0.5-3.1 0.5-7 0-15.7-7.2-21.2-17.8-6.1-13.3-5.3-26.8 2.1-30.6z m43.2 224.2c-4.7 9.4-12.4 16.6-19.4 17.7-1 0.3-2.1 0.5-3.1 0.5-7 0-15.7-7.2-21.2-17.8-6.5-12.9-5.6-26.6 1.9-30.4 5.6-2.8 13.3 0.5 19.8 8.2 6.5-7.9 14.3-11.2 19.9-8.4 7.7 3.8 8.6 17.1 2.1 30.2z m0-97c-4.7 9.4-12.4 16.6-19.4 17.7-1 0.3-2.1 0.5-3.1 0.5-7 0-15.7-7.2-21.2-17.8-6.5-12.9-5.6-26.6 1.9-30.4 5.6-2.8 13.3 0.5 19.8 8.2 6.5-7.9 14.3-11.2 19.9-8.4 7.7 3.7 8.6 17 2.1 30.2zM777.5 467.5H629.7c-16.1 0-29.2 13.1-29.2 29.2v333h78.7V755c0-4 3.3-7.3 7.3-7.3h33.9c4 0 7.3 3.3 7.3 7.3v74.7h78.7v-333c0.2-16.1-12.8-29.2-28.9-29.2z m-52.1 130.9C720.7 607.8 713 615 706 616c-1 0.3-2.1 0.5-3.1 0.5-7 0-15.7-7.2-21.2-17.8-6.5-12.9-5.6-26.6 1.9-30.4 5.6-2.8 13.3 0.5 19.8 8.2 6.5-7.9 14.3-11.2 19.9-8.4 7.9 3.7 8.6 17.1 2.1 30.3z" fill="#8AABFF" p-id="3700"></path><path d="M807.8 496.7c0-16.6-13.6-30.3-30.3-30.3H629.7c-13.8 0-25.5 9.4-29.2 22v-248c0-1.9-0.2-3.7-0.3-5.6h14.3c11 0 19.9-8.9 19.9-19.9s-8.9-19.9-19.9-19.9H220.8c-11 0-19.9 8.9-19.9 19.9s8.9 19.9 19.9 19.9h14.3c-0.3 1.7-0.3 3.7-0.3 5.6V831H371v1.2h113.7V831h194.5v1.2h48.6V831h79.9V496.7z m-1.2 333.1h-78.7v-74.7c0-4-3.3-7.3-7.3-7.3h-33.9c-4 0-7.3 3.3-7.3 7.3v74.7h-78.7v-333c0-16.1 13.1-29.2 29.2-29.2h147.8c16.1 0 29.2 13.1 29.2 29.2v333h-0.3zM680.5 831v-75.9c0-3.5 2.8-6.3 6.3-6.3h33.9c3.5 0 6.3 2.8 6.3 6.3V831h-46.5z m-81-1.2H484.7V650c0-9.3-7.5-16.8-16.8-16.8h-80.5c-9.3 0-16.8 7.5-16.8 16.8v179.8h-135V240.3c0-1.9 0.2-3.7 0.5-5.6h362.8c0.3 1.7 0.5 3.7 0.5 5.6v256.3l0.1 333.2zM372.1 831V650c0-8.6 7-15.6 15.6-15.6h80.5c8.6 0 15.6 7 15.6 15.6v181H372.1zM220.8 196.2h393.7c10.3 0 18.7 8.4 18.7 18.7 0 10.3-8.4 18.7-18.7 18.7H220.8c-10.3 0-18.7-8.4-18.7-18.7-0.2-10.3 8.2-18.7 18.7-18.7z" fill="#FFFFFF" p-id="3701"></path><path d="M328.7 330.7c5.9 11.9 15.9 19.2 22.9 16.8 6.6-1 14.2-7.9 18.7-17 6.1-12.4 5.4-25.4-1.4-28.9-5.2-2.6-12.8 0.9-19.1 8.7l-0.5 0.5-0.5-0.5c-4.9-5.9-10.5-9.3-15.2-9.3-1.4 0-2.6 0.3-3.7 0.9-6.8 3.6-7.3 16.6-1.2 28.8z" fill="#FFD7E5" p-id="3702"></path><path d="M348.8 349.3c1 0 2.1-0.2 3.1-0.5 7-1 14.7-8.2 19.4-17.7 6.5-13.1 5.6-26.4-1.9-30.4-5.6-2.8-13.5 0.5-19.9 8.4-6.6-7.7-14.3-11-19.8-8.2-7.5 3.8-8.4 17.5-1.9 30.4 5.1 10.8 14 18 21 18z m-15-48.1c4.7 0 10.3 3.3 15.2 9.3l0.5 0.5 0.5-0.5c6.1-7.9 13.8-11.4 19.1-8.7 6.8 3.5 7.5 16.4 1.4 28.9-4.5 9.1-11.9 15.9-18.7 17-7 2.4-17.1-4.9-22.9-16.8-6.1-12.4-5.6-25.2 1.4-28.9 0.8-0.7 2.2-0.8 3.5-0.8z" fill="#FFFFFF" p-id="3703"></path><path d="M465.5 330.7c5.9 11.9 15.9 19.2 22.9 16.8 6.6-1 14.2-7.9 18.7-17 6.1-12.4 5.4-25.4-1.4-28.9-5.2-2.6-12.8 0.9-19.1 8.7l-0.5 0.5-0.5-0.5c-4.9-5.9-10.5-9.3-15.2-9.3-1.4 0-2.6 0.3-3.7 0.9-6.8 3.6-7.5 16.6-1.2 28.8z" fill="#FFD7E5" p-id="3704"></path><path d="M485.4 349.3c1 0 2.1-0.2 3.1-0.5 7-1 14.7-8.2 19.4-17.7 6.5-13.1 5.6-26.4-1.9-30.4-5.6-2.8-13.5 0.5-19.9 8.4-6.6-7.7-14.3-11-19.8-8.2-7.5 3.8-8.4 17.5-1.9 30.4 5.3 10.8 14 18 21 18z m-14.9-48.1c4.7 0 10.3 3.3 15.2 9.3l0.5 0.5 0.5-0.5c6.1-7.9 13.8-11.4 19.1-8.7 6.8 3.5 7.5 16.4 1.4 28.9-4.5 9.1-11.9 15.9-18.7 17-7 2.4-17.1-4.9-22.9-16.8-6.1-12.4-5.6-25.2 1.4-28.9 0.9-0.7 2.1-0.8 3.5-0.8z" fill="#FFFFFF" p-id="3705"></path><path d="M328.9 428c5.9 11.9 15.9 19.2 22.9 16.8 6.6-1 14.2-7.9 18.7-17 6.1-12.4 5.4-25.4-1.4-28.9-5.2-2.6-12.8 0.9-19.1 8.7l-0.5 0.5-0.5-0.5c-4.9-5.9-10.5-9.3-15.2-9.3-1.4 0-2.6 0.3-3.7 0.9-6.8 3.4-7.4 16.4-1.2 28.8z" fill="#FFD7E5" p-id="3706"></path><path d="M349 446.4c1 0 2.1-0.2 3.1-0.5 7-1 14.7-8.2 19.4-17.7 6.5-13.1 5.6-26.4-1.9-30.4-5.6-2.8-13.5 0.5-19.9 8.4-6.6-7.7-14.3-11-19.8-8.2-7.5 3.8-8.4 17.5-1.9 30.4 5.1 10.8 13.8 18 21 18z m-15.1-48.2c4.7 0 10.3 3.3 15.2 9.3l0.5 0.5 0.5-0.5c6.1-7.9 13.8-11.4 19.1-8.7 6.8 3.5 7.5 16.4 1.4 28.9-4.5 9.1-11.9 15.9-18.7 17-7 2.4-17.1-4.9-22.9-16.8-6.1-12.4-5.6-25.2 1.4-28.9 0.9-0.4 2.1-0.8 3.5-0.8z" fill="#FFFFFF" p-id="3707"></path><path d="M508.3 427.6c6.1-12.4 5.4-25.4-1.4-28.9-5.2-2.6-12.8 0.9-19.1 8.7l-0.5 0.5-0.5-0.5c-4.9-5.9-10.5-9.3-15.2-9.3-1.4 0-2.6 0.3-3.7 0.9-7 3.5-7.5 16.4-1.4 28.9 5.9 11.9 15.9 19.2 22.9 16.8 6.9-1.1 14.4-8 18.9-17.1z" fill="#FFD7E5" p-id="3708"></path><path d="M507.5 397.9c-5.6-2.8-13.5 0.5-19.9 8.4-6.6-7.7-14.3-11-19.8-8.2-7.5 3.8-8.4 17.5-1.9 30.4 5.2 10.7 14 17.8 21.2 17.8 1 0 2.1-0.2 3.1-0.5 7-1 14.7-8.2 19.4-17.7 6.3-13.1 5.4-26.4-2.1-30.2zM466.7 428c-6.1-12.4-5.6-25.2 1.4-28.9 1-0.5 2.4-0.9 3.7-0.9 4.7 0 10.3 3.3 15.2 9.3l0.5 0.5 0.5-0.5c6.1-7.9 13.8-11.4 19.1-8.7 6.8 3.5 7.5 16.4 1.4 28.9-4.5 9.1-11.9 15.9-18.7 17-7.2 2.4-17.2-5-23.1-16.7z" fill="#FFFFFF" p-id="3709"></path><path d="M371.5 524.7c6.1-12.4 5.4-25.4-1.4-28.9-5.2-2.6-12.8 0.9-19.1 8.7l-0.5 0.5-0.5-0.5c-4.9-5.9-10.5-9.3-15.2-9.3-1.4 0-2.6 0.3-3.7 0.9-7 3.5-7.5 16.4-1.4 28.9 5.9 11.9 15.9 19.2 22.9 16.8 7-1 14.4-7.8 18.9-17.1z" fill="#FFD7E5" p-id="3710"></path><path d="M370.7 495c-5.6-2.8-13.5 0.5-19.9 8.4-6.6-7.7-14.3-11-19.8-8.2-7.5 3.8-8.4 17.5-1.9 30.4 5.2 10.7 14 17.8 21.2 17.8 1 0 2.1-0.2 3.1-0.5 7-1 14.7-8.2 19.4-17.7 6.3-13.1 5.6-26.4-2.1-30.2z m-40.6 30.1c-6.1-12.4-5.6-25.2 1.4-28.9 1-0.5 2.4-0.9 3.7-0.9 4.7 0 10.3 3.3 15.2 9.3l0.5 0.5 0.5-0.5c6.1-7.9 13.8-11.4 19.1-8.7 6.8 3.5 7.5 16.4 1.4 28.9-4.5 9.1-11.9 15.9-18.7 17-7.2 2.5-17.3-4.8-23.1-16.7z" fill="#FFFFFF" p-id="3711"></path><path d="M508.3 524.7c6.1-12.4 5.4-25.4-1.4-28.9-5.2-2.6-12.8 0.9-19.1 8.7l-0.5 0.5-0.5-0.5c-4.9-5.9-10.5-9.3-15.2-9.3-1.4 0-2.6 0.3-3.7 0.9-7 3.5-7.5 16.4-1.4 28.9 5.9 11.9 15.9 19.2 22.9 16.8 6.9-1 14.4-7.8 18.9-17.1z" fill="#FFD7E5" p-id="3712"></path><path d="M507.5 495c-5.6-2.8-13.5 0.5-19.9 8.4-6.6-7.7-14.3-11-19.8-8.2-7.5 3.8-8.4 17.5-1.9 30.4 5.2 10.7 14 17.8 21.2 17.8 1 0 2.1-0.2 3.1-0.5 7-1 14.7-8.2 19.4-17.7 6.3-13.1 5.4-26.4-2.1-30.2z m-40.8 30.1c-6.1-12.4-5.6-25.2 1.4-28.9 1-0.5 2.4-0.9 3.7-0.9 4.7 0 10.3 3.3 15.2 9.3l0.5 0.5 0.5-0.5c6.1-7.9 13.8-11.4 19.1-8.7 6.8 3.5 7.5 16.4 1.4 28.9-4.5 9.1-11.9 15.9-18.7 17-7.2 2.5-17.2-4.8-23.1-16.7z" fill="#FFFFFF" p-id="3713"></path><path d="M483.7 650c0-8.6-7-15.6-15.6-15.6h-80.5c-8.6 0-15.6 7-15.6 15.6v181h111.6V650z" fill="#FFD7E5" p-id="3714"></path><path d="M220.8 233.6h393.7c10.3 0 18.7-8.4 18.7-18.7 0-10.3-8.4-18.7-18.7-18.7H220.8c-10.3 0-18.7 8.4-18.7 18.7-0.2 10.4 8.2 18.7 18.7 18.7z" fill="#8AABFF" p-id="3715"></path><path d="M726.8 755.1c0-3.5-2.8-6.3-6.3-6.3h-33.9c-3.5 0-6.3 2.8-6.3 6.3V831h46.4v-75.9h0.1zM724.4 597.8c6.1-12.4 5.4-25.4-1.4-28.9-5.2-2.6-12.8 0.9-19.1 8.7l-0.5 0.5-0.5-0.5c-4.9-5.9-10.5-9.3-15.2-9.3-1.4 0-2.6 0.3-3.7 0.9-7 3.5-7.5 16.4-1.4 28.9 5.9 11.9 15.9 19.2 22.9 16.8 7-1.2 14.3-8 18.9-17.1z" fill="#FFD7E5" p-id="3716"></path><path d="M723.5 567.9c-5.6-2.8-13.5 0.5-19.9 8.4-6.6-7.7-14.3-11-19.8-8.2-7.5 3.8-8.4 17.5-1.9 30.4 5.2 10.7 14 17.8 21.2 17.8 1 0 2.1-0.2 3.1-0.5 7-1 14.7-8.2 19.4-17.7 6.3-12.9 5.6-26.3-2.1-30.2zM682.7 598c-6.1-12.4-5.6-25.2 1.4-28.9 1-0.5 2.4-0.9 3.7-0.9 4.7 0 10.3 3.3 15.2 9.3l0.5 0.5 0.5-0.5c6.1-7.9 13.8-11.4 19.1-8.7 6.8 3.5 7.5 16.4 1.4 28.9-4.5 9.1-11.9 15.9-18.7 17-7 2.5-17.1-4.8-23.1-16.7z" fill="#FFFFFF" p-id="3717"></path></svg>