<?xml version="1.0" standalone="no"?><!DOCTYPE svg PUBLIC "-//W3C//DTD SVG 1.1//EN" "http://www.w3.org/Graphics/SVG/1.1/DTD/svg11.dtd"><svg t="1647147241224" class="icon" viewBox="0 0 1024 1024" version="1.1" xmlns="http://www.w3.org/2000/svg" p-id="1412" xmlns:xlink="http://www.w3.org/1999/xlink" width="64" height="64"><defs><style type="text/css"></style></defs><path d="M0 0m186.181818 0l651.636364 0q186.181818 0 186.181818 186.181818l0 651.636364q0 186.181818-186.181818 186.181818l-651.636364 0q-186.181818 0-186.181818-186.181818l0-651.636364q0-186.181818 186.181818-186.181818Z" fill="#5ECFAA" p-id="1413"></path><path d="M246.132364 269.032727h136.192a373.853091 373.853091 0 0 0-26.717091-50.827636l72.331636-11.729455c8.471273 18.897455 16.942545 39.749818 24.762182 62.557091h121.204364c9.122909-20.852364 16.290909-42.356364 21.504-64.512l72.983272 9.774546c-5.213091 19.549091-13.032727 37.794909-22.155636 54.737454h131.630545v61.253818h-231.330909v44.311273h196.794182v58.647273h-196.794182v44.962909h252.834909v62.557091H224.628364v-62.557091h252.834909v-44.962909H282.624v-58.647273h194.839273v-44.311273h-231.330909V269.032727z m235.892363 282.810182l69.073455 6.516364c-1.954909 11.077818-3.909818 22.155636-6.516364 32.581818h240.453818v63.860364h-209.826909c44.311273 46.917818 125.765818 79.499636 243.712 96.442181l-35.84 64.512c-137.495273-26.717091-228.072727-74.938182-271.732363-144.663272a249.949091 249.949091 0 0 1-47.569455 56.692363c-43.008 37.794909-119.249455 67.770182-227.421091 89.925818l-28.020363-66.466909c92.532364-16.290909 158.999273-39.098182 199.400727-69.073454 11.077818-9.122909 20.852364-18.245818 29.323636-27.368727H239.616v-63.860364h233.285818a423.563636 423.563636 0 0 0 9.122909-39.098182z" fill="#FFFFFF" p-id="1414"></path></svg>